<?xml version="1.0" encoding="utf-8"?>
<!-- Generator: Adobe Illustrator 24.0.1, SVG Export Plug-In . SVG Version: 6.00 Build 0)  -->
<svg version="1.1" id="Layer_1" xmlns="http://www.w3.org/2000/svg" xmlns:xlink="http://www.w3.org/1999/xlink" x="0px" y="0px"
	 viewBox="0 0 275.5 148.8" style="enable-background:new 0 0 275.5 148.8;" xml:space="preserve">
<style type="text/css">
	.st0{fill:#F4C892;}
	.st1{fill:#E2B583;}
	.st2{fill:#EFCEBD;}
	.st3{fill:#FED9A8;}
	.st4{fill:#FFFFFF;}
	.st5{fill:#F7F7F7;}
	.st6{fill:#7AB8DD;}
	.st7{fill:#6FA9D4;}
	.st8{fill:#FFE0BB;}
</style>
<g>
	<path d="M45,21.6c0,4.7-1.5,8.3-4.6,10.9s-7.4,3.9-13,3.9l-3.8-0.2l-0.1,2.4c0,1.6,0.1,2.9,0.3,3.8s0.5,1.5,0.9,1.9
		c0.8,0.5,1.6,1,2.5,1.6c0.4,0.4,0.7,1.1,0.7,1.9c0,1.6-1,2.8-2.9,3.5s-4.9,1.1-8.9,1.1c-4.3,0-7.5-0.4-9.5-1.1s-3-2-3-3.7
		c0-1,0.5-1.9,1.6-2.5c1.4-0.9,2.1-1.4,2.2-1.5c0.6-1,1-8.7,1-23.2c0-1.7-0.1-3-0.4-3.7S7.2,15.4,6.3,15c-0.8-0.4-1.6-0.8-2.4-1.1
		c-0.6-0.4-1-1.1-1-2.1c0-2.2,2.1-3.3,6.3-3.3c0.9,0,1.7,0,2.4,0.1c0.7,0,1.3,0.1,2,0.1c1,0,3.2-0.1,6.7-0.3s5.8-0.3,7-0.3
		C39.1,7.9,45,12.5,45,21.6z M29.6,22.5c0-2.2-0.4-4-1.3-5.2s-2.1-1.8-3.5-1.8c-0.8,0-1.3,0.5-1.4,1.4c-0.1,0.9-0.2,2.2-0.2,3.8v1.7
		v2.8c0,1.6,0.1,2.6,0.2,3.1s0.5,0.7,1,0.7c1.6,0,2.9-0.6,3.8-1.7C29.1,26.1,29.6,24.5,29.6,22.5z"/>
	<path d="M79.8,45.7c0,1.6-0.9,3.1-2.8,4.5c-2.1,1.6-4.5,2.3-7.3,2.3c-0.9,0-1.6-0.1-2.2-0.3s-1.2-0.5-1.7-1s-1.1-1.1-1.6-1.6
		c-0.3-0.3-0.6-0.4-0.8-0.4s-0.5,0.1-0.8,0.4S62,50,61.8,50.1c-1.1,0.8-2.2,1.4-3.2,1.7s-2.2,0.5-3.7,0.5c-3.2,0-5.8-0.9-7.7-2.6
		s-2.9-4-2.9-6.8s1.3-5.2,3.8-7.2s5.7-2.9,9.4-2.9c1.2,0,2.8,0.2,4.8,0.5l0.1-3c0-3.7-0.9-5.6-2.6-5.6c-0.8,0-1.5,0.3-2.2,1
		c-0.3,0.2-0.9,1-1.9,2.2C54,30,52.3,31,50.5,31c-1.1,0-2-0.4-2.7-1.1s-1-1.7-1-2.8c0-2.1,1.3-3.9,4-5.4c2.9-1.6,6.5-2.4,11-2.4
		c9.7,0,14.6,3.6,14.6,10.7l-0.2,7v0.9c0,2.1,0,3.5,0.1,4.2s0.7,1.2,1.8,1.5C79.2,44,79.8,44.6,79.8,45.7z M62.3,39.4
		c0-0.7-0.1-1.2-0.2-1.3s-0.6-0.2-1.3-0.2c-2,0-3.1,1.3-3.1,3.8c0,2.4,0.8,3.5,2.4,3.5c1,0,1.6-0.4,1.8-1.2
		C62.2,43.1,62.3,41.6,62.3,39.4z"/>
	<path d="M115,27.3c0,2.4-0.7,4.3-2,5.8c-1.4,1.5-3.1,2.2-5.3,2.2c-2.3,0-4.1-0.8-5.3-2.4c-0.2-0.2-0.4-0.7-0.7-1.3
		c-0.3-0.6-0.6-0.9-0.9-0.9c-0.8,0-1.1,2.3-1.1,6.8c0,2.3,0.1,3.9,0.2,4.9s0.7,1.8,1.8,2.3c0.6,0.3,1.1,0.6,1.7,0.8
		c0.9,0.6,1.4,1.4,1.4,2.5c0,1.6-0.9,2.7-2.7,3.3s-4.7,0.9-8.8,0.9c-7.8,0-11.8-1.6-11.8-4.8c0-0.9,0.2-1.6,0.7-2.1
		c0.1-0.1,0.6-0.5,1.6-1.2c0.3-0.2,0.5-0.4,0.8-0.6S85,43,85,42.6c0.1-0.4,0.2-1.5,0.3-3.3s0.2-4.2,0.2-7.1v-1
		c0-0.8-0.1-1.4-0.2-1.6s-0.4-0.5-1.1-0.8c-0.9-0.5-1.5-0.9-1.9-1.4c-0.4-0.4-0.6-1-0.6-1.6c0-1.2,1-2.4,3.1-3.4
		c1.8-0.9,3.8-1.6,6-2.1s4.3-0.8,6.4-0.8c1.3,0,2.1,0.5,2.2,1.5c0.1,1.2,0.2,2,0.3,2.4c0.1,0.5,0.3,0.7,0.6,0.7s0.6-0.2,0.8-0.6
		s0.4-0.9,0.6-1.4c1.1-1.8,2.9-2.6,5.3-2.6s4.4,0.7,5.9,2.1C114.2,23.1,115,25,115,27.3z"/>
	<path d="M159.9,48.8c0,1.5-0.8,2.5-2.5,2.9c-1.2,0.3-3.8,0.5-7.7,0.5h-3.2c-1.9,0-3.1-0.3-3.8-1c-0.3-0.3-1-1.2-1.9-2.5l-5.5-7.8
		c-0.2-0.3-0.5-0.6-0.7-1c-0.2-0.2-0.5-0.4-0.8-0.4c-0.6,0-0.8,0.4-0.8,1.2l0.1,1.1c0,1.8,0.2,3,0.7,3.3c0.4,0.4,0.9,0.8,1.4,1.2
		c0.4,0.4,0.6,1,0.6,1.8c0,2.8-3.3,4.1-10,4.1c-7.2,0-10.7-1.4-10.7-4.1c0-0.8,0.3-1.4,0.9-1.8s1.2-0.9,1.8-1.3
		c0.4-0.5,0.7-1.7,0.8-3.6s0.2-4.7,0.2-8.5v-9.3c0-1.1,0-2.2,0-3.4c-0.1-1.5-0.4-2.4-1-2.7c-1.2-0.4-2.1-0.8-2.6-1
		c-0.9-0.4-1.3-1-1.3-1.9c0-1.4,1.6-2.8,4.8-4.1c2-0.8,4.1-1.5,6.2-1.9s3.9-0.7,5.4-0.7c1,0,1.7,0.3,1.9,0.8s0.4,1.5,0.4,3.1v15.6
		c0,0.8,0.3,1.1,0.9,1.1c1,0,2.2-0.4,3.4-1.2c1.2-0.8,1.9-1.5,1.9-2.1c-0.4-0.5-0.7-0.9-1-1.3s-0.4-0.8-0.4-1.3c0-2,2.7-3.1,8.2-3.1
		c6.3,0,9.4,1.3,9.4,3.8c0,1.1-0.4,1.7-1.1,1.9c-0.7,0.2-1.4,0.3-2,0.5c-1.4,0.4-2.7,1.1-4,2s-1.9,1.8-1.9,2.4
		c0,0.7,0.8,2.2,2.5,4.4s4.1,5.4,7.4,9.2c1.2,1,2,1.7,2.5,2.1C159.5,46.8,159.9,47.7,159.9,48.8z"/>
	<path d="M218.1,37.1c0,4.7-1.9,8.5-5.6,11.5c-3.7,3-8.6,4.5-14.8,4.5c-3.7,0-7.1-0.5-10-1.4s-4.9-1.9-5.8-2.9s-1.6-2.4-2.2-4.2
		s-0.8-3.9-0.8-6.2c0-2.5,1-3.8,2.9-3.8c1.2,0,2.3,0.6,3.2,1.9c0.5,0.8,1,1.5,1.6,2.3c2.8,3.7,6,5.5,9.5,5.5c1.4,0,2.4-0.3,3.2-0.8
		s1.2-1.2,1.2-2c0-0.9-0.7-1.7-2-2.3c-2.3-0.8-4.3-1.5-5.9-2.2c-8.5-3.3-12.7-8.2-12.7-14.8c0-4.2,1.6-7.7,4.9-10.5
		s7.5-4.2,12.8-4.2c1.6,0,3.2,0.1,4.6,0.4c1.4,0.3,2.7,0.6,4.1,0.9c0.6,0,1.3-0.1,2.1-0.3s1.4-0.3,1.6-0.3c1.4,0,2.7,0.7,4,2.2
		c1.1,1.3,1.9,2.6,2.5,4s0.9,2.6,0.9,3.7c0,1.4-0.4,2.6-1.2,3.4s-1.9,1.3-3.2,1.3c-1.1,0-2.3-0.6-3.7-1.8c-0.8-0.8-1.6-1.5-2.4-2.3
		c-1.8-1.7-3.9-2.5-6.4-2.5c-2.4,0-3.6,0.8-3.6,2.5c0,1.4,1.1,2.5,3.4,3.3c2,0.6,3.7,1.1,5,1.5c4.5,1.3,7.7,3,9.6,4.9
		C217.1,30.6,218.1,33.4,218.1,37.1z"/>
	<path d="M262.8,46.6c0,1.5-1.4,2.8-4.2,3.9c-2.8,1.1-6.4,1.7-10.9,1.7c-0.8,0-1.3,0-1.6-0.2c-0.3-0.1-0.4-0.5-0.5-1s-0.1-1.3-0.1-2
		c-0.1-0.6-0.5-0.9-1-0.9c-0.4,0-0.8,0.2-1.2,0.5s-0.7,0.6-0.9,0.8c-1.3,1-2.5,1.7-3.8,2.1c-1.2,0.5-2.6,0.7-4.3,0.7
		c-6.9,0-10.3-3.9-10.3-11.7v-8.3c0-1.2-0.1-1.9-0.2-2.3s-0.6-0.8-1.3-1.3c-0.9-0.6-1.4-0.9-1.4-1c-0.4-0.4-0.7-1.1-0.7-1.9
		c0-0.9,0.3-1.6,0.9-2.1s1.6-1.1,3.1-1.6c2.4-0.9,4.8-1.6,7.1-2.1s4.1-0.7,5.3-0.7c0.8,0,1.3,0.1,1.6,0.4s0.4,0.8,0.4,1.6
		c-0.2,2.7-0.4,5.4-0.5,8.2s-0.2,5.4-0.2,7.8c0,2.4,0.2,4,0.7,5s1.4,1.5,2.8,1.5c1.6,0,2.7-0.6,3.2-1.7c0.6-1.1,0.8-3.1,0.8-6v-4
		c0-1.1-0.1-1.8-0.2-2.3s-0.6-0.9-1.2-1.3c-1-0.6-1.6-1.1-1.7-1.3c-0.2-0.4-0.4-0.9-0.4-1.6c0-0.8,0.3-1.5,0.9-2.1
		c0.6-0.5,1.6-1.1,3-1.6c2.4-0.9,4.7-1.6,6.9-2.1s3.9-0.7,5.1-0.7c1,0,1.5,0.2,1.7,0.5s0.3,1.4,0.3,3c0,2.6-0.1,6-0.2,10.3
		s-0.2,6.9-0.2,7.9c0,1.2,0.1,1.8,0.2,2.1s0.5,0.6,1.2,1c0.7,0.5,1.1,0.8,1.4,1.1C262.7,45.5,262.8,46,262.8,46.6z"/>
	<path d="M146.4,76.2c0,1-0.4,1.8-1.2,2.4c-0.8,0.5-1.6,1-2.3,1.4c-0.7,0.6-1.1,5.1-1.1,13.7c0,9,0.3,13.9,0.8,14.6
		c0.1,0.1,0.5,0.4,1.2,0.7c1.3,0.6,1.9,1.6,1.9,2.9c0,3-3.7,4.4-11.2,4.4c-4,0-7-0.3-8.8-1c-1.9-0.7-2.8-1.8-2.8-3.3
		c0-1.4,0.7-2.6,2.1-3.4c0.3-0.2,0.7-0.4,1-0.6s0.6-0.5,0.6-0.9c0.1-0.4,0.2-1.2,0.3-2.3s0.2-2.5,0.2-4.4c0-1.5-0.2-2.4-0.7-2.8
		s-1.7-0.6-3.8-0.6c-3,0-5,0.3-6,0.8c-0.5,0.2-0.8,1.2-0.8,3c0,2.3,0.1,4,0.3,5.3c0.2,1.2,0.5,1.9,0.8,2.2c1.4,0.9,2.1,1.5,2.3,1.7
		c0.4,0.5,0.5,1.1,0.5,1.7c0,3.1-4,4.6-11.9,4.6c-7.3,0-11-1.5-11-4.6c0-1.1,0.3-1.9,1-2.3c0.1,0,0.8-0.4,2.2-1
		c1-0.4,1.4-4.8,1.4-13c0-4.9-0.1-8.6-0.2-11.1s-0.4-3.9-0.7-4.3c-1.1-0.4-1.9-0.9-2.5-1.4s-0.9-1.1-0.9-2c0-2.9,3.9-4.4,11.8-4.4
		c7.5,0,11.2,1.3,11.2,4c0,0.8-0.2,1.4-0.5,1.8s-0.9,0.9-1.7,1.3c-0.8,0.5-1.3,1-1.5,1.7s-0.3,1.7-0.3,3.1v2.3
		c0,1.3,0.3,2.1,0.8,2.4s1.8,0.5,3.7,0.5c2.8,0,4.7-0.2,5.6-0.6c0.5-0.2,0.7-1.1,0.7-2.8v-0.8c0-3-0.4-4.9-1.2-5.5
		c-0.6-0.4-1.2-0.7-1.7-1.1c-0.6-0.5-0.9-1.2-0.9-2.2c0-1.6,0.9-2.8,2.8-3.4s5-0.9,9.4-0.9c3.9,0,6.7,0.3,8.5,0.9
		C145.6,73.6,146.4,74.7,146.4,76.2z"/>
	<path d="M187.2,87.5c0,1-0.2,1.8-0.7,2.2c-0.5,0.4-1.2,0.8-2.3,1.3c-1.1,0.4-1.9,1-2.4,1.8c-0.3,0.5-0.9,1.7-1.6,3.7
		c-2.6,7.3-5.3,14.6-7.9,21.8c-3.5,6.3-8,9.4-13.6,9.4c-3,0-5.5-0.8-7.3-2.3s-2.7-3.6-2.7-6.1c0-1.7,0.6-3.1,1.7-4.3
		s2.4-1.7,3.9-1.7c2.3,0,3.9,1,4.8,3.1c0.1,0.3,0.4,1.2,0.8,2.9c0.2,0.8,0.6,1.3,1.1,1.3c1,0,1.5-0.7,1.5-2c0-1.1-0.4-2.6-1.2-4.7
		c-0.5-1.2-1.6-3.7-3.3-7.4l-4.6-10c-0.7-1.5-1.1-2.3-1.1-2.5c-0.4-0.8-1-1.3-1.7-1.7c-1.1-0.6-1.8-1-1.9-1.1
		c-0.6-0.5-0.8-1.2-0.8-2.2c0-3.3,4-5,12.1-5c3.5,0,6,0.3,7.5,0.8s2.2,1.5,2.2,3.1c0,0.8-0.3,1.6-1,2.1c-0.7,0.6-1,1-1,1.3
		c0,0.6,0.4,1.8,1.1,3.7c0.8,1.9,1.7,2.8,2.7,2.8c0.9,0,1.7-0.9,2.5-2.6c0.4-0.8,0.7-1.6,0.9-2.3s0.3-1.1,0.3-1.3
		c0-0.4-0.5-1.2-1.6-2.3c-0.6-0.6-0.8-1.2-0.8-1.7c0-2.4,2.5-3.6,7.6-3.6C184.9,83.8,187.2,85,187.2,87.5z"/>
	<path d="M230.2,110.6c0,1.5-1.4,2.8-4.2,3.9s-6.4,1.7-10.9,1.7c-0.8,0-1.3-0.1-1.6-0.2s-0.4-0.4-0.5-1.1c-0.1-0.6-0.1-1.3-0.1-2
		c-0.1-0.6-0.5-0.9-1-0.9c-0.4,0-0.8,0.2-1.2,0.5s-0.7,0.6-0.9,0.8c-1.3,1-2.5,1.7-3.8,2.1s-2.6,0.7-4.3,0.7
		c-6.9,0-10.3-3.9-10.3-11.7v-8.3c0-1.2-0.1-1.9-0.2-2.3c-0.1-0.4-0.6-0.8-1.3-1.3c-0.9-0.6-1.4-0.9-1.4-1c-0.4-0.4-0.7-1.1-0.7-1.9
		c0-0.9,0.3-1.6,0.9-2.1s1.6-1.1,3.1-1.6c2.4-0.9,4.8-1.6,7.1-2.1s4.1-0.7,5.3-0.7c0.8,0,1.3,0.1,1.6,0.4s0.4,0.8,0.4,1.6
		c-0.2,2.7-0.4,5.4-0.5,8.2s-0.2,5.4-0.2,7.8s0.2,4,0.7,5s1.4,1.5,2.8,1.5c1.6,0,2.7-0.6,3.2-1.7c0.6-1.1,0.8-3.1,0.8-6v-4
		c0-1.1-0.1-1.8-0.2-2.3s-0.6-0.9-1.2-1.3c-1-0.6-1.6-1.1-1.7-1.3c-0.2-0.4-0.4-0.9-0.4-1.6c0-0.8,0.3-1.5,0.9-2.1
		c0.6-0.5,1.6-1.1,3-1.7c2.4-0.9,4.7-1.6,6.9-2.1s3.9-0.7,5.1-0.7c1,0,1.5,0.2,1.7,0.5c0.2,0.4,0.3,1.4,0.3,3c0,2.6-0.1,6-0.2,10.3
		S227,104,227,105c0,1.2,0.1,1.8,0.2,2.1s0.5,0.6,1.2,1s1.1,0.8,1.4,1.1C230,109.5,230.2,110,230.2,110.6z"/>
	<path d="M274.5,112c0,1.6-0.9,2.8-2.7,3.4c-1.8,0.6-4.8,0.9-8.9,0.9c-5.6,0-8.5-1.2-8.5-3.7c0-0.6,0.2-1,0.5-1.4s0.6-0.8,1-1.1
		c0.6-0.9,0.9-2.1,1-3.7s0.1-3.5,0.1-5.8c0-2.4-0.3-4.2-0.9-5.3c-0.6-1.2-1.5-1.7-2.9-1.7c-1.1,0-1.8,0.5-2.3,1.4s-0.6,2.4-0.6,4.3
		c0,5.7,0.2,9,0.7,9.9c0.4,0.4,0.6,0.8,0.8,1.1c0.4,0.6,0.6,1.3,0.6,2c0,1.5-0.9,2.6-2.6,3.2s-4.5,0.9-8.3,0.9
		c-2.8,0-4.9-0.4-6.4-1.1s-2.2-1.8-2.2-3.1c0-0.8,0.3-1.5,1-2.1c0.4-0.4,0.9-0.7,1.3-1.1c0.2-0.4,0.4-1.6,0.5-3.7s0.1-4.9,0.1-8.6
		v-1c0-1-0.1-1.7-0.2-1.9c-0.1-0.3-0.6-0.7-1.4-1.2c-1.2-0.8-1.9-1.7-1.9-2.6c0-1.4,1.2-2.7,3.7-3.8s4.8-1.9,6.9-2.4
		s3.8-0.8,4.9-0.8c1.6,0,2.5,0.9,2.5,2.8c0,1.7,0.3,2.5,0.8,2.5c0.2,0,0.5-0.2,0.7-0.5s0.5-0.8,0.8-1.2c1.6-2.1,4.1-3.2,7.3-3.2
		c2.1,0,4,0.4,5.7,1.1s3,1.7,4,2.9c0.8,1.1,1.4,2.4,1.8,4s0.5,3.4,0.5,5.5c0,2.2,0,4-0.1,5.3s-0.1,2.5-0.1,3.7c0,0.9,0.1,1.6,0.2,2
		s0.5,1,1.1,1.6c0.3,0.4,0.7,0.7,1,1C274.4,110.9,274.5,111.4,274.5,112z"/>
</g>
<path class="st0" d="M39,109.8L39,109.8c-1.7-1.6-6.8-4.6-9.1-4.9l-5-0.7L28.3,78c2.9,0.4,5.1,0.2,5.7-0.2l19.8-9.1
	c2.5-1.1,4.3-1,5.6,0.8l0,0c1.4,1.8,1,4.3-0.8,5.6L52.2,80c-0.6,0.4-0.3,1.4,0.4,1.5l31.6,4.2c2.2,0.3,3.8,2.2,3.6,4.4
	c-0.2,2.3-2.3,3.9-4.5,3.6l4.7,0.6c2.2,0.3,3.8,2.3,3.5,4.5l0,0c-0.3,2.2-2.3,3.8-4.5,3.5l-5.7-0.8c2.2,0.3,3.8,2.3,3.5,4.5l0,0
	c-0.3,2.2-2.3,3.8-4.5,3.5l-5.5-0.7c2.2,0.3,3.8,2.3,3.5,4.5l0,0c-0.3,2.2-2.3,3.8-4.5,3.5l-28.2-4.1
	C42.9,112.4,40.7,111.3,39,109.8z"/>
<g>
	<path class="st1" d="M78,113.3L78,113.3c0.1-0.7,0-1.4-0.3-2.1c-0.8,1.1-2.2,1.7-3.7,1.5l-13.4-1.9c-2.2-0.3-4.2,1.2-4.5,3.4l0,0
		l17.3,2.5C75.6,117.1,77.7,115.5,78,113.3z"/>
	<path class="st1" d="M74.5,108.8l5.5,0.7c2.2,0.3,4.2-1.3,4.5-3.5l0,0c0.1-0.7,0-1.4-0.3-2.1c-0.9,1.1-2.2,1.7-3.7,1.5l-5.5-0.7
		L61.7,103c-2.2-0.3-4.2,1.3-4.5,3.5l0,0L74.5,108.8z"/>
	<path class="st1" d="M86.8,102.3c2.2,0.3,4.2-1.3,4.5-3.5l0,0c0.1-0.7,0-1.4-0.3-2.1c-0.9,1.1-2.2,1.7-3.7,1.5L62.7,95
		c-2.2-0.3-4.2,1.3-4.5,3.5l0,0L86.8,102.3z"/>
</g>
<path class="st2" d="M83.2,93.7c2.2,0.3,4.3-1.3,4.5-3.6c0.1-0.7,0-1.4-0.3-2c-0.9,1.1-2.2,1.7-3.7,1.5L63.8,87
	c-2.2-0.3-4.2,1.3-4.5,3.5l0,0L83.2,93.7z"/>
<path class="st3" d="M63.8,119.2L63.8,119.2c-2.3,0.4-7.8,2.6-9.4,4.3l-3.6,3.6l-18.7-18.6c2.1-2.1,3.2-4,3.3-4.7l4.8-21.3
	c0-2.2,1.8-4,4-4l0,0c2.2,0,4,1.8,4,4l-0.1,8.1c0,0.7,0.9,1.1,1.4,0.6l22.5-22.5c1.6-1.6,4.1-1.7,5.7-0.1c1.7,1.6,1.7,4.2,0.1,5.8
	l3.3-3.3c1.6-1.6,4.1-1.6,5.7,0l0,0c1.6,1.6,1.6,4.1,0,5.7l-4.1,4.1c1.6-1.6,4.1-1.6,5.7,0l0,0c1.6,1.6,1.6,4.1,0,5.7l-3.9,3.9
	c1.6-1.6,4.1-1.6,5.7,0l0,0c1.6,1.6,1.6,4.1,0,5.7l-20.3,20C68.3,117.7,66.1,118.8,63.8,119.2z"/>
<g>
	<path class="st0" d="M90.3,90.4L90.3,90.4c-0.5-0.5-1.1-0.9-1.8-1c0.4,1.3,0,2.8-1,3.9l-9.6,9.5c-1.6,1.5-1.6,4.1,0,5.6l0,0
		l12.5-12.3C91.9,94.5,91.9,92,90.3,90.4z"/>
	<path class="st0" d="M84.6,90.4l3.9-3.9c1.6-1.6,1.6-4.1,0-5.7l0,0c-0.5-0.5-1.1-0.9-1.8-1c0.4,1.3,0,2.8-1,3.9l-3.9,3.9l-9.6,9.6
		c-1.5,1.6-1.5,4.1,0,5.6l0.1,0.1L84.6,90.4z"/>
	<path class="st0" d="M86.9,76.7c1.6-1.6,1.6-4.1,0-5.7l0,0c-0.5-0.5-1.1-0.9-1.8-1c0.4,1.3,0,2.8-1,3.9L66.5,91.5
		c-1.5,1.6-1.5,4.1,0,5.6l0.1,0.1L86.9,76.7z"/>
	<path class="st0" d="M77.9,74.3c1.6-1.6,1.6-4.2-0.1-5.8c-0.5-0.5-1.1-0.8-1.7-1c0.3,1.3,0,2.8-1,3.9L60.8,85.8
		c-1.5,1.6-1.5,4.1,0,5.6l0.1,0.1L77.9,74.3z"/>
</g>
<path class="st4" d="M23.4,76.6l-3.6,27.3c-0.1,0.6,0.3,1.1,0.9,1.2l6,0.8c0.6,0.1,1.1-0.3,1.2-0.9l3.6-27.3
	c0.1-0.6-0.3-1.1-0.9-1.2l-6-0.8C24,75.6,23.4,76,23.4,76.6z"/>
<path class="st5" d="M20.6,105.1l6,0.8c0.6,0.1,1.1-0.3,1.2-0.9l1.7-12.8l-8.1-1.5l-1.8,13.2C19.6,104.5,20,105,20.6,105.1z"/>
<path class="st6" d="M12.5,73.3l-4.1,31c-0.1,0.7,0.4,1.3,1.1,1.3l11.8,0.9c0.6,0,1.2-0.4,1.3-1l4-29.7c0.1-0.6-0.3-1.2-0.9-1.3
	l-11.7-2.2C13.2,72.2,12.6,72.6,12.5,73.3z"/>
<path class="st7" d="M22.5,105.5l1.1-8.5c-0.1,0.6-0.7,0.9-1.2,0.9l-12-0.9c-0.5,0-0.8-0.3-1-0.7l-1.1,8c-0.1,0.7,0.4,1.3,1.1,1.3
	l11.8,0.9C21.9,106.6,22.4,106.1,22.5,105.5z"/>
<path class="st4" d="M28,111.6L47.5,131c0.4,0.4,1.1,0.4,1.5,0l4.3-4.3c0.4-0.4,0.4-1.1,0-1.5l-19.5-19.4c-0.4-0.4-1.1-0.4-1.5,0
	l-4.3,4.3C27.6,110.5,27.6,111.2,28,111.6z"/>
<path class="st5" d="M53.3,125.2l-9.7-9.7l-5.8,5.8l9.7,9.7c0.4,0.4,1.1,0.4,1.5,0l4.3-4.3C53.7,126.3,53.7,125.6,53.3,125.2z"/>
<path class="st6" d="M18.8,118.2l22.2,22.1c0.5,0.5,1.3,0.5,1.7,0l7.9-8.9c0.4-0.5,0.4-1.2,0-1.6l-21.2-21.2c-0.4-0.4-1.1-0.5-1.6,0
	l-8.8,7.9C18.3,116.9,18.3,117.7,18.8,118.2z"/>
<path class="st7" d="M42.6,140.2l7.9-8.9c0.4-0.5,0.4-1.2,0-1.6l-6.4-6.4c0.3,0.4,0.3,1.1-0.1,1.5l-7.9,8.9
	c-0.4,0.5-1.2,0.5-1.7,0.1l-15.7-15.7c0,0,0.1,0.1,0.1,0.1l22.2,22.1C41.4,140.8,42.2,140.7,42.6,140.2z"/>
<path class="st8" d="M68.4,103l-7.9-7.9c-1.8-1.8-4.6-1.8-6.4,0l-0.4,0.4c-1.3,1.3-3,2-4.8,2c-1.8,0-3.5-0.7-4.8-2c0,0,0,0,0,0
	c-0.3-0.3-0.8-0.2-0.9,0.3l-2.1,9.4c0,0,0,0,0,0c-0.2,1.1,0.1,2.2,0.9,2.9l8.1,8.1c1,1,2.5,1.2,3.8,0.6c3.1-1.7,6.9-2.9,8.7-3.3
	c1.2-0.2,2.2-0.8,3.1-1.6l2.6-2.5C70.2,107.6,70.2,104.7,68.4,103z"/>
<path d="M79.2,113.5c0.1-1,0-2-0.4-2.9l1.1,0.1c1.4,0.2,2.8-0.2,3.9-1c1.1-0.9,1.8-2.1,2-3.5c0.1-1,0-2-0.4-2.9l1.3,0.2
	c1.4,0.2,2.8-0.2,3.9-1c1.1-0.9,1.8-2.1,2-3.5c0.1-1.1,0-2.2-0.5-3.1c0.5-0.8,0.7-1.7,0.7-2.7c0-1.4-0.5-2.7-1.5-3.7c0,0,0,0,0,0
	c-0.7-0.7-1.6-1.2-2.6-1.4l0.8-0.8c1-1,1.5-2.3,1.5-3.7c0-1.4-0.5-2.7-1.5-3.7c0,0,0,0,0,0c-0.7-0.7-1.6-1.2-2.5-1.4l0.9-0.9
	c1-1,1.5-2.3,1.5-3.7c0-1.4-0.5-2.7-1.5-3.7c0,0,0,0,0,0c-1-1-2.3-1.5-3.7-1.5c-1.4,0-2.7,0.6-3.7,1.5l-0.2,0.2
	c-0.2-1-0.7-1.9-1.5-2.6c-2.1-1.9-5.4-1.9-7.4,0.2L58.1,81l-4.4-0.6l5.7-4.3c2.3-1.8,2.7-5.1,1-7.4c-2.5-3.2-6-1.6-7.1-1.1l-5.6,2.6
	c-0.6,0.3-0.9,1-0.6,1.6c0.3,0.6,1,0.9,1.6,0.6l5.6-2.6c2.7-1.2,3.5-0.4,4.2,0.4c0.9,1.2,0.7,3-0.5,3.9L51.5,79
	c-0.7,0.5-1,1.4-0.8,2.2s0.9,1.4,1.7,1.5l3.5,0.5l-6.5,6.5l0.1-7.2c0-2.9-2.4-5.3-5.3-5.2c-0.1,0-0.2,0-0.3,0c0,0,0,0,0,0
	c-1.3,0.1-2.5,0.6-3.4,1.5c-0.8,0.8-1.3,1.9-1.5,3c0,0,0,0,0,0c0,0.1,0,0.2,0,0.2c0,0,0,0,0,0c0,0.1,0,0.2,0,0.3c0,0,0,0,0,0
	l-4.7,21.2c0,0,0,0.1,0,0.1c0,0,0,0,0,0c0,0,0,0,0,0c0,0,0,0,0,0c0,0,0,0,0,0c0,0,0,0,0,0c0,0,0,0,0,0c0,0,0,0,0,0.1c0,0,0,0,0,0
	c0,0.1-0.1,0.2-0.2,0.3c0,0,0,0,0,0c0,0,0,0,0,0.1c0,0,0,0,0,0.1c0,0,0,0,0,0c-0.3-0.1-0.6-0.2-0.8-0.2c-0.2,0-0.5,0-0.7,0.1
	c-0.8-0.3-1.6-0.6-2.3-0.7c0,0,0,0,0,0l-0.7-0.1l2.8-20.8l0.4-3.3c0.8-0.1,1.6-0.2,2.1-0.5l8.9-4.1c0.6-0.3,0.9-1,0.6-1.6
	c-0.3-0.6-1-0.9-1.6-0.6l-9,4.1c0,0-0.1,0-0.1,0c-0.1,0-0.3,0.1-0.8,0.2c-0.2-0.9-1-1.5-1.9-1.7l-3.1-0.4c-0.3-0.8-0.9-1.4-1.8-1.6
	l-11.7-2.2c-0.6-0.1-1.3,0-1.9,0.4c-0.5,0.4-0.9,1-1,1.6l-4.1,31c-0.1,0.7,0.1,1.3,0.5,1.8c0.1,0.1,0.1,0.1,0.2,0.2
	c0.4,0.4,0.9,0.7,1.5,0.7l11.8,0.9c0.9,0.1,1.7-0.3,2.2-1l3.1,0.4c0.6,0.1,1.2-0.1,1.7-0.5c0.3-0.2,0.5-0.5,0.6-0.8l0.9,0.1
	c0.1,0,0.3,0.1,0.5,0.1l-1,1c-0.8-0.3-1.7-0.1-2.3,0.5l-8.8,7.9c-0.5,0.4-0.8,1.1-0.8,1.7c0,0.7,0.2,1.3,0.7,1.8c0,0,0,0,0,0
	c0,0,0,0,0,0l22.2,22.1c0.5,0.5,1.1,0.7,1.8,0.7c0.7,0,1.3-0.3,1.7-0.8l7.9-8.9c0.6-0.7,0.7-1.6,0.5-2.3l2.2-2.2
	c0.4-0.4,0.7-1,0.7-1.6c0-0.3-0.1-0.7-0.2-1l0.6-0.6c0.6-0.6,1.9-1.3,3.6-2.1c0.6-0.3,0.9-1,0.6-1.6c-0.3-0.6-1-0.9-1.6-0.6
	c-1.4,0.6-3.3,1.6-4.3,2.6c0,0,0,0,0,0l-0.5,0.5l-7.3-7.3l-9.9-9.8c0.4-0.7,0.8-1.4,0.9-1.9c0,0,0,0,0,0l4.8-21.3c0-0.1,0-0.2,0-0.3
	c0-1.5,1.3-2.8,2.8-2.8c1.5,0,2.8,1.3,2.8,2.8L47,90.7c0,0.8,0.5,1.6,1.3,1.9c0.8,0.3,1.7,0.2,2.2-0.4l9-9l0,0L73,69.6
	c1.1-1.1,2.9-1.2,4-0.1c0.6,0.5,0.9,1.2,0.9,2c0,0.8-0.3,1.5-0.8,2l0,0L59.9,90.6c-0.5,0.5-0.5,1.3,0,1.7c0,0,0,0,0,0
	c0.5,0.5,1.3,0.5,1.7,0l17.1-17.1l0,0l0,0c0,0,0,0,0,0l3.3-3.3c0.5-0.5,1.2-0.8,2-0.8c0.7,0,1.4,0.3,2,0.8c0,0,0,0,0,0
	c0.5,0.5,0.8,1.2,0.8,2c0,0.7-0.3,1.4-0.8,2l0,0L65.6,96.3c-0.5,0.5-0.5,1.3,0,1.7c0,0,0,0,0,0c0.5,0.5,1.3,0.5,1.7,0l16.3-16.3
	c0,0,0,0,0,0c0.5-0.5,1.2-0.8,2-0.8s1.4,0.3,2,0.8c0,0,0,0,0,0c0.5,0.5,0.8,1.2,0.8,2c0,0.7-0.3,1.4-0.8,2l-16.3,16.4
	c-0.5,0.5-0.5,1.3,0,1.7c0,0,0,0,0,0c0.5,0.5,1.3,0.5,1.7,0l12.4-12.4c0,0,0,0,0,0c1.1-1.1,2.9-1.1,4,0c0,0,0,0,0,0
	c0.5,0.5,0.8,1.2,0.8,2c0,0.7-0.3,1.4-0.8,2c0,0,0,0,0,0l-20.3,20c-0.1,0.1-0.1,0.1-0.2,0.2l0,0c0,0,0,0,0,0
	c-1.5,1.4-3.3,2.3-5.3,2.7c-0.7,0.1-1.1,0.8-1,1.4c0.1,0.7,0.8,1.1,1.4,1c2.3-0.4,4.4-1.4,6.1-2.9l3.1,0.5
	C76.1,118.4,78.8,116.4,79.2,113.5z M9.6,104.4l4.1-30.9l11.5,2.2l-4,29.6L9.6,104.4z M23.9,104.3l3.6-27l2.7,0.4l0,0.4c0,0,0,0,0,0
	l-2.6,19.4l-1,7.2L23.9,104.3z M49.5,130.5C49.5,130.5,49.5,130.5,49.5,130.5L49.5,130.5l-7.8,8.8l-22.1-22l8.7-7.8L39,120
	L49.5,130.5z M46.3,119.9l5.8,5.8c0,0,0,0,0,0l0.2,0.2l-1.9,2l-9.6-9.6l-9.6-9.6l1.9-2L46.3,119.9z M90.1,98c0,0.2,0,0.5,0,0.7
	c-0.2,1.5-1.6,2.6-3.1,2.4L90.1,98z M83.2,104.8c0.1,0.4,0.1,0.8,0.1,1.2c-0.2,1.5-1.6,2.6-3.1,2.4l-0.5-0.1L83.2,104.8z M75.7,115
	c-0.6,0.5-1.3,0.6-2.1,0.6l-1.2-0.2l4-3.9c0.3,0.5,0.4,1.1,0.3,1.7C76.6,113.9,76.3,114.6,75.7,115z"/>
</svg>
